<mxfile host="app.diagrams.net" agent="Mozilla/5.0 (Windows NT 10.0; Win64; x64) AppleWebKit/537.36 (KHTML, like Gecko) Chrome/127.0.0.0 Safari/537.36" version="24.7.6">
  <diagram name="Página-1" id="1HkuH7DsNxHWYjvwO7Ht">
    <mxGraphModel dx="1050" dy="557" grid="1" gridSize="10" guides="1" tooltips="1" connect="1" arrows="1" fold="1" page="1" pageScale="1" pageWidth="827" pageHeight="1169" math="0" shadow="0">
      <root>
        <mxCell id="0" />
        <mxCell id="1" parent="0" />
        <mxCell id="TvmcNosokVq-BHHIvJGE-1" value="&lt;b&gt;&lt;font style=&quot;font-size: 14px;&quot;&gt;Transação&lt;/font&gt;&lt;/b&gt;" style="rounded=0;whiteSpace=wrap;html=1;" vertex="1" parent="1">
          <mxGeometry x="155" y="330" width="120" height="40" as="geometry" />
        </mxCell>
        <mxCell id="TvmcNosokVq-BHHIvJGE-2" value="" style="endArrow=none;html=1;rounded=0;" edge="1" parent="1">
          <mxGeometry width="50" height="50" relative="1" as="geometry">
            <mxPoint x="155" y="330" as="sourcePoint" />
            <mxPoint x="155" y="260" as="targetPoint" />
          </mxGeometry>
        </mxCell>
        <mxCell id="TvmcNosokVq-BHHIvJGE-3" value="" style="ellipse;whiteSpace=wrap;html=1;" vertex="1" parent="1">
          <mxGeometry x="145" y="240" width="30" height="20" as="geometry" />
        </mxCell>
        <mxCell id="TvmcNosokVq-BHHIvJGE-4" value="Valor" style="text;html=1;align=center;verticalAlign=middle;whiteSpace=wrap;rounded=0;" vertex="1" parent="1">
          <mxGeometry x="135" y="220" width="40" height="20" as="geometry" />
        </mxCell>
        <mxCell id="TvmcNosokVq-BHHIvJGE-5" value="" style="endArrow=none;html=1;rounded=0;" edge="1" parent="1">
          <mxGeometry width="50" height="50" relative="1" as="geometry">
            <mxPoint x="199" y="330" as="sourcePoint" />
            <mxPoint x="199" y="260" as="targetPoint" />
          </mxGeometry>
        </mxCell>
        <mxCell id="TvmcNosokVq-BHHIvJGE-6" value="" style="ellipse;whiteSpace=wrap;html=1;" vertex="1" parent="1">
          <mxGeometry x="190" y="240" width="30" height="20" as="geometry" />
        </mxCell>
        <mxCell id="TvmcNosokVq-BHHIvJGE-7" value="DataHora" style="text;html=1;align=center;verticalAlign=middle;whiteSpace=wrap;rounded=0;" vertex="1" parent="1">
          <mxGeometry x="180" y="220" width="60" height="20" as="geometry" />
        </mxCell>
        <mxCell id="TvmcNosokVq-BHHIvJGE-9" value="" style="endArrow=none;html=1;rounded=0;" edge="1" parent="1">
          <mxGeometry width="50" height="50" relative="1" as="geometry">
            <mxPoint x="235" y="330" as="sourcePoint" />
            <mxPoint x="235" y="290" as="targetPoint" />
          </mxGeometry>
        </mxCell>
        <mxCell id="TvmcNosokVq-BHHIvJGE-18" value="" style="ellipse;whiteSpace=wrap;html=1;" vertex="1" parent="1">
          <mxGeometry x="220" y="270" width="30" height="20" as="geometry" />
        </mxCell>
        <mxCell id="TvmcNosokVq-BHHIvJGE-19" value="Tipo de Transação" style="text;html=1;align=center;verticalAlign=middle;whiteSpace=wrap;rounded=0;" vertex="1" parent="1">
          <mxGeometry x="215" y="240" width="70" height="30" as="geometry" />
        </mxCell>
        <mxCell id="TvmcNosokVq-BHHIvJGE-20" value="" style="endArrow=none;html=1;rounded=0;" edge="1" parent="1">
          <mxGeometry width="50" height="50" relative="1" as="geometry">
            <mxPoint x="275" y="340" as="sourcePoint" />
            <mxPoint x="275" y="310" as="targetPoint" />
          </mxGeometry>
        </mxCell>
        <mxCell id="TvmcNosokVq-BHHIvJGE-21" value="" style="ellipse;whiteSpace=wrap;html=1;" vertex="1" parent="1">
          <mxGeometry x="260" y="290" width="30" height="20" as="geometry" />
        </mxCell>
        <mxCell id="TvmcNosokVq-BHHIvJGE-22" value="Status" style="text;html=1;align=center;verticalAlign=middle;whiteSpace=wrap;rounded=0;" vertex="1" parent="1">
          <mxGeometry x="275" y="268" width="40" height="30" as="geometry" />
        </mxCell>
        <mxCell id="TvmcNosokVq-BHHIvJGE-23" value="" style="endArrow=none;html=1;rounded=0;" edge="1" parent="1">
          <mxGeometry width="50" height="50" relative="1" as="geometry">
            <mxPoint x="115" y="340" as="sourcePoint" />
            <mxPoint x="155" y="340" as="targetPoint" />
          </mxGeometry>
        </mxCell>
        <mxCell id="TvmcNosokVq-BHHIvJGE-24" value="" style="endArrow=none;html=1;rounded=0;" edge="1" parent="1">
          <mxGeometry width="50" height="50" relative="1" as="geometry">
            <mxPoint x="114.5" y="340" as="sourcePoint" />
            <mxPoint x="114.5" y="310" as="targetPoint" />
          </mxGeometry>
        </mxCell>
        <mxCell id="TvmcNosokVq-BHHIvJGE-25" value="" style="ellipse;whiteSpace=wrap;html=1;" vertex="1" parent="1">
          <mxGeometry x="100" y="290" width="30" height="20" as="geometry" />
        </mxCell>
        <mxCell id="TvmcNosokVq-BHHIvJGE-26" value="Conta origem" style="text;html=1;align=center;verticalAlign=middle;whiteSpace=wrap;rounded=0;" vertex="1" parent="1">
          <mxGeometry x="90" y="260" width="50" height="30" as="geometry" />
        </mxCell>
        <mxCell id="TvmcNosokVq-BHHIvJGE-27" value="" style="endArrow=none;html=1;rounded=0;" edge="1" parent="1">
          <mxGeometry width="50" height="50" relative="1" as="geometry">
            <mxPoint x="80" y="360" as="sourcePoint" />
            <mxPoint x="155" y="360" as="targetPoint" />
          </mxGeometry>
        </mxCell>
        <mxCell id="TvmcNosokVq-BHHIvJGE-28" value="" style="endArrow=none;html=1;rounded=0;" edge="1" parent="1">
          <mxGeometry width="50" height="50" relative="1" as="geometry">
            <mxPoint x="80" y="360" as="sourcePoint" />
            <mxPoint x="80" y="330" as="targetPoint" />
          </mxGeometry>
        </mxCell>
        <mxCell id="TvmcNosokVq-BHHIvJGE-29" value="" style="ellipse;whiteSpace=wrap;html=1;" vertex="1" parent="1">
          <mxGeometry x="60" y="310" width="30" height="20" as="geometry" />
        </mxCell>
        <mxCell id="TvmcNosokVq-BHHIvJGE-30" value="Conta destino" style="text;html=1;align=center;verticalAlign=middle;whiteSpace=wrap;rounded=0;" vertex="1" parent="1">
          <mxGeometry x="40" y="280" width="50" height="30" as="geometry" />
        </mxCell>
        <mxCell id="TvmcNosokVq-BHHIvJGE-32" value="&lt;b&gt;&lt;font style=&quot;font-size: 14px;&quot;&gt;Funcionário&lt;/font&gt;&lt;/b&gt;" style="rounded=0;whiteSpace=wrap;html=1;" vertex="1" parent="1">
          <mxGeometry x="485" y="330" width="120" height="40" as="geometry" />
        </mxCell>
        <mxCell id="TvmcNosokVq-BHHIvJGE-33" value="" style="endArrow=none;html=1;rounded=0;" edge="1" parent="1">
          <mxGeometry width="50" height="50" relative="1" as="geometry">
            <mxPoint x="485" y="330" as="sourcePoint" />
            <mxPoint x="485" y="260" as="targetPoint" />
          </mxGeometry>
        </mxCell>
        <mxCell id="TvmcNosokVq-BHHIvJGE-34" value="" style="ellipse;whiteSpace=wrap;html=1;" vertex="1" parent="1">
          <mxGeometry x="475" y="240" width="30" height="20" as="geometry" />
        </mxCell>
        <mxCell id="TvmcNosokVq-BHHIvJGE-35" value="Nome" style="text;html=1;align=center;verticalAlign=middle;whiteSpace=wrap;rounded=0;" vertex="1" parent="1">
          <mxGeometry x="440" y="230" width="40" height="20" as="geometry" />
        </mxCell>
        <mxCell id="TvmcNosokVq-BHHIvJGE-36" value="" style="endArrow=none;html=1;rounded=0;" edge="1" parent="1">
          <mxGeometry width="50" height="50" relative="1" as="geometry">
            <mxPoint x="529" y="330" as="sourcePoint" />
            <mxPoint x="529" y="260" as="targetPoint" />
          </mxGeometry>
        </mxCell>
        <mxCell id="TvmcNosokVq-BHHIvJGE-37" value="" style="ellipse;whiteSpace=wrap;html=1;" vertex="1" parent="1">
          <mxGeometry x="520" y="240" width="30" height="20" as="geometry" />
        </mxCell>
        <mxCell id="TvmcNosokVq-BHHIvJGE-38" value="Cargo" style="text;html=1;align=center;verticalAlign=middle;whiteSpace=wrap;rounded=0;" vertex="1" parent="1">
          <mxGeometry x="515" y="220" width="40" height="20" as="geometry" />
        </mxCell>
        <mxCell id="TvmcNosokVq-BHHIvJGE-39" value="" style="endArrow=none;html=1;rounded=0;" edge="1" parent="1">
          <mxGeometry width="50" height="50" relative="1" as="geometry">
            <mxPoint x="565" y="330" as="sourcePoint" />
            <mxPoint x="565" y="290" as="targetPoint" />
          </mxGeometry>
        </mxCell>
        <mxCell id="TvmcNosokVq-BHHIvJGE-40" value="" style="ellipse;whiteSpace=wrap;html=1;" vertex="1" parent="1">
          <mxGeometry x="550" y="270" width="30" height="20" as="geometry" />
        </mxCell>
        <mxCell id="TvmcNosokVq-BHHIvJGE-41" value="Data de admissão" style="text;html=1;align=center;verticalAlign=middle;whiteSpace=wrap;rounded=0;" vertex="1" parent="1">
          <mxGeometry x="550" y="240" width="60" height="30" as="geometry" />
        </mxCell>
        <mxCell id="TvmcNosokVq-BHHIvJGE-42" value="" style="endArrow=none;html=1;rounded=0;" edge="1" parent="1">
          <mxGeometry width="50" height="50" relative="1" as="geometry">
            <mxPoint x="605" y="340" as="sourcePoint" />
            <mxPoint x="605" y="310" as="targetPoint" />
          </mxGeometry>
        </mxCell>
        <mxCell id="TvmcNosokVq-BHHIvJGE-43" value="" style="ellipse;whiteSpace=wrap;html=1;" vertex="1" parent="1">
          <mxGeometry x="590" y="290" width="30" height="20" as="geometry" />
        </mxCell>
        <mxCell id="TvmcNosokVq-BHHIvJGE-44" value="Salário" style="text;html=1;align=center;verticalAlign=middle;whiteSpace=wrap;rounded=0;" vertex="1" parent="1">
          <mxGeometry x="590" y="265" width="40" height="30" as="geometry" />
        </mxCell>
        <mxCell id="TvmcNosokVq-BHHIvJGE-45" value="" style="endArrow=none;html=1;rounded=0;" edge="1" parent="1">
          <mxGeometry width="50" height="50" relative="1" as="geometry">
            <mxPoint x="445" y="340" as="sourcePoint" />
            <mxPoint x="485" y="340" as="targetPoint" />
          </mxGeometry>
        </mxCell>
        <mxCell id="TvmcNosokVq-BHHIvJGE-46" value="" style="endArrow=none;html=1;rounded=0;" edge="1" parent="1">
          <mxGeometry width="50" height="50" relative="1" as="geometry">
            <mxPoint x="444.5" y="340" as="sourcePoint" />
            <mxPoint x="444.5" y="310" as="targetPoint" />
          </mxGeometry>
        </mxCell>
        <mxCell id="TvmcNosokVq-BHHIvJGE-47" value="" style="ellipse;whiteSpace=wrap;html=1;" vertex="1" parent="1">
          <mxGeometry x="430" y="290" width="30" height="20" as="geometry" />
        </mxCell>
        <mxCell id="TvmcNosokVq-BHHIvJGE-48" value="Data de nascimento" style="text;html=1;align=center;verticalAlign=middle;whiteSpace=wrap;rounded=0;" vertex="1" parent="1">
          <mxGeometry x="410" y="260" width="60" height="30" as="geometry" />
        </mxCell>
        <mxCell id="TvmcNosokVq-BHHIvJGE-49" value="" style="endArrow=none;html=1;rounded=0;" edge="1" parent="1">
          <mxGeometry width="50" height="50" relative="1" as="geometry">
            <mxPoint x="410" y="360" as="sourcePoint" />
            <mxPoint x="485" y="360" as="targetPoint" />
          </mxGeometry>
        </mxCell>
        <mxCell id="TvmcNosokVq-BHHIvJGE-50" value="" style="endArrow=none;html=1;rounded=0;" edge="1" parent="1">
          <mxGeometry width="50" height="50" relative="1" as="geometry">
            <mxPoint x="410" y="360" as="sourcePoint" />
            <mxPoint x="410" y="330" as="targetPoint" />
          </mxGeometry>
        </mxCell>
        <mxCell id="TvmcNosokVq-BHHIvJGE-51" value="" style="ellipse;whiteSpace=wrap;html=1;" vertex="1" parent="1">
          <mxGeometry x="390" y="310" width="30" height="20" as="geometry" />
        </mxCell>
        <mxCell id="TvmcNosokVq-BHHIvJGE-52" value="CPF" style="text;html=1;align=center;verticalAlign=middle;whiteSpace=wrap;rounded=0;" vertex="1" parent="1">
          <mxGeometry x="370" y="290" width="50" height="20" as="geometry" />
        </mxCell>
        <mxCell id="TvmcNosokVq-BHHIvJGE-54" value="" style="endArrow=none;html=1;rounded=0;" edge="1" parent="1">
          <mxGeometry width="50" height="50" relative="1" as="geometry">
            <mxPoint x="485" y="240" as="sourcePoint" />
            <mxPoint x="485" y="210" as="targetPoint" />
          </mxGeometry>
        </mxCell>
        <mxCell id="TvmcNosokVq-BHHIvJGE-55" value="" style="endArrow=none;html=1;rounded=0;" edge="1" parent="1">
          <mxGeometry width="50" height="50" relative="1" as="geometry">
            <mxPoint x="480" y="209" as="sourcePoint" />
            <mxPoint x="520" y="209" as="targetPoint" />
          </mxGeometry>
        </mxCell>
        <mxCell id="TvmcNosokVq-BHHIvJGE-56" value="" style="endArrow=none;html=1;rounded=0;" edge="1" parent="1">
          <mxGeometry width="50" height="50" relative="1" as="geometry">
            <mxPoint x="445" y="209" as="sourcePoint" />
            <mxPoint x="485" y="209" as="targetPoint" />
          </mxGeometry>
        </mxCell>
        <mxCell id="TvmcNosokVq-BHHIvJGE-57" value="" style="endArrow=none;html=1;rounded=0;" edge="1" parent="1">
          <mxGeometry width="50" height="50" relative="1" as="geometry">
            <mxPoint x="520" y="209" as="sourcePoint" />
            <mxPoint x="520" y="179" as="targetPoint" />
          </mxGeometry>
        </mxCell>
        <mxCell id="TvmcNosokVq-BHHIvJGE-58" value="" style="endArrow=none;html=1;rounded=0;" edge="1" parent="1">
          <mxGeometry width="50" height="50" relative="1" as="geometry">
            <mxPoint x="445" y="209" as="sourcePoint" />
            <mxPoint x="445" y="179" as="targetPoint" />
          </mxGeometry>
        </mxCell>
        <mxCell id="TvmcNosokVq-BHHIvJGE-59" value="" style="ellipse;whiteSpace=wrap;html=1;" vertex="1" parent="1">
          <mxGeometry x="430" y="159" width="30" height="20" as="geometry" />
        </mxCell>
        <mxCell id="TvmcNosokVq-BHHIvJGE-60" value="" style="ellipse;whiteSpace=wrap;html=1;" vertex="1" parent="1">
          <mxGeometry x="510" y="159" width="30" height="20" as="geometry" />
        </mxCell>
        <mxCell id="TvmcNosokVq-BHHIvJGE-61" value="Primeiro nome" style="text;html=1;align=center;verticalAlign=middle;whiteSpace=wrap;rounded=0;" vertex="1" parent="1">
          <mxGeometry x="410" y="130" width="60" height="30" as="geometry" />
        </mxCell>
        <mxCell id="TvmcNosokVq-BHHIvJGE-62" value="Sobrenome" style="text;html=1;align=center;verticalAlign=middle;whiteSpace=wrap;rounded=0;" vertex="1" parent="1">
          <mxGeometry x="495" y="134.5" width="60" height="21" as="geometry" />
        </mxCell>
        <mxCell id="TvmcNosokVq-BHHIvJGE-63" value="" style="endArrow=none;html=1;rounded=0;" edge="1" parent="1">
          <mxGeometry width="50" height="50" relative="1" as="geometry">
            <mxPoint x="605" y="340" as="sourcePoint" />
            <mxPoint x="680" y="340" as="targetPoint" />
          </mxGeometry>
        </mxCell>
        <mxCell id="TvmcNosokVq-BHHIvJGE-64" value="" style="endArrow=none;html=1;rounded=0;" edge="1" parent="1">
          <mxGeometry width="50" height="50" relative="1" as="geometry">
            <mxPoint x="680" y="340" as="sourcePoint" />
            <mxPoint x="680" y="310" as="targetPoint" />
          </mxGeometry>
        </mxCell>
        <mxCell id="TvmcNosokVq-BHHIvJGE-65" value="" style="ellipse;whiteSpace=wrap;html=1;" vertex="1" parent="1">
          <mxGeometry x="670" y="293" width="30" height="20" as="geometry" />
        </mxCell>
        <mxCell id="TvmcNosokVq-BHHIvJGE-66" value="" style="endArrow=none;html=1;rounded=0;" edge="1" parent="1">
          <mxGeometry width="50" height="50" relative="1" as="geometry">
            <mxPoint x="680" y="293" as="sourcePoint" />
            <mxPoint x="680" y="263" as="targetPoint" />
          </mxGeometry>
        </mxCell>
        <mxCell id="TvmcNosokVq-BHHIvJGE-67" value="" style="endArrow=none;html=1;rounded=0;" edge="1" parent="1">
          <mxGeometry width="50" height="50" relative="1" as="geometry">
            <mxPoint x="680" y="262" as="sourcePoint" />
            <mxPoint x="720" y="262" as="targetPoint" />
          </mxGeometry>
        </mxCell>
        <mxCell id="TvmcNosokVq-BHHIvJGE-68" value="" style="endArrow=none;html=1;rounded=0;" edge="1" parent="1">
          <mxGeometry width="50" height="50" relative="1" as="geometry">
            <mxPoint x="645" y="262" as="sourcePoint" />
            <mxPoint x="685" y="262" as="targetPoint" />
          </mxGeometry>
        </mxCell>
        <mxCell id="TvmcNosokVq-BHHIvJGE-69" value="" style="endArrow=none;html=1;rounded=0;" edge="1" parent="1">
          <mxGeometry width="50" height="50" relative="1" as="geometry">
            <mxPoint x="720" y="262" as="sourcePoint" />
            <mxPoint x="720" y="232" as="targetPoint" />
          </mxGeometry>
        </mxCell>
        <mxCell id="TvmcNosokVq-BHHIvJGE-70" value="" style="endArrow=none;html=1;rounded=0;" edge="1" parent="1">
          <mxGeometry width="50" height="50" relative="1" as="geometry">
            <mxPoint x="645" y="262" as="sourcePoint" />
            <mxPoint x="645" y="232" as="targetPoint" />
          </mxGeometry>
        </mxCell>
        <mxCell id="TvmcNosokVq-BHHIvJGE-71" value="" style="ellipse;whiteSpace=wrap;html=1;" vertex="1" parent="1">
          <mxGeometry x="630" y="212" width="30" height="20" as="geometry" />
        </mxCell>
        <mxCell id="TvmcNosokVq-BHHIvJGE-72" value="" style="ellipse;whiteSpace=wrap;html=1;" vertex="1" parent="1">
          <mxGeometry x="710" y="212" width="30" height="20" as="geometry" />
        </mxCell>
        <mxCell id="TvmcNosokVq-BHHIvJGE-73" value="Contato" style="text;html=1;align=center;verticalAlign=middle;whiteSpace=wrap;rounded=0;" vertex="1" parent="1">
          <mxGeometry x="690" y="278" width="45" height="20" as="geometry" />
        </mxCell>
        <mxCell id="TvmcNosokVq-BHHIvJGE-74" value="E-mail" style="text;html=1;align=center;verticalAlign=middle;whiteSpace=wrap;rounded=0;" vertex="1" parent="1">
          <mxGeometry x="625" y="191" width="40" height="21" as="geometry" />
        </mxCell>
        <mxCell id="TvmcNosokVq-BHHIvJGE-75" value="Telefone (0,n)" style="text;html=1;align=center;verticalAlign=middle;whiteSpace=wrap;rounded=0;" vertex="1" parent="1">
          <mxGeometry x="690" y="190" width="80" height="22" as="geometry" />
        </mxCell>
        <mxCell id="TvmcNosokVq-BHHIvJGE-76" value="" style="endArrow=none;html=1;rounded=0;" edge="1" parent="1">
          <mxGeometry width="50" height="50" relative="1" as="geometry">
            <mxPoint x="605" y="360" as="sourcePoint" />
            <mxPoint x="680" y="360" as="targetPoint" />
          </mxGeometry>
        </mxCell>
        <mxCell id="TvmcNosokVq-BHHIvJGE-77" value="" style="ellipse;whiteSpace=wrap;html=1;" vertex="1" parent="1">
          <mxGeometry x="680" y="350" width="30" height="20" as="geometry" />
        </mxCell>
        <mxCell id="TvmcNosokVq-BHHIvJGE-78" value="ID departamento" style="text;html=1;align=center;verticalAlign=middle;whiteSpace=wrap;rounded=0;" vertex="1" parent="1">
          <mxGeometry x="700" y="320" width="80" height="30" as="geometry" />
        </mxCell>
        <mxCell id="TvmcNosokVq-BHHIvJGE-79" value="&lt;b&gt;&lt;font style=&quot;font-size: 14px;&quot;&gt;Pagamento&lt;/font&gt;&lt;/b&gt;" style="rounded=0;whiteSpace=wrap;html=1;" vertex="1" parent="1">
          <mxGeometry x="150" y="520" width="120" height="40" as="geometry" />
        </mxCell>
        <mxCell id="TvmcNosokVq-BHHIvJGE-80" value="" style="endArrow=none;html=1;rounded=0;" edge="1" parent="1">
          <mxGeometry width="50" height="50" relative="1" as="geometry">
            <mxPoint x="150" y="520" as="sourcePoint" />
            <mxPoint x="150" y="450" as="targetPoint" />
          </mxGeometry>
        </mxCell>
        <mxCell id="TvmcNosokVq-BHHIvJGE-81" value="" style="ellipse;whiteSpace=wrap;html=1;" vertex="1" parent="1">
          <mxGeometry x="140" y="430" width="30" height="20" as="geometry" />
        </mxCell>
        <mxCell id="TvmcNosokVq-BHHIvJGE-82" value="Valor" style="text;html=1;align=center;verticalAlign=middle;whiteSpace=wrap;rounded=0;" vertex="1" parent="1">
          <mxGeometry x="135" y="410" width="40" height="20" as="geometry" />
        </mxCell>
        <mxCell id="TvmcNosokVq-BHHIvJGE-83" value="" style="endArrow=none;html=1;rounded=0;" edge="1" parent="1">
          <mxGeometry width="50" height="50" relative="1" as="geometry">
            <mxPoint x="194" y="520" as="sourcePoint" />
            <mxPoint x="194" y="450" as="targetPoint" />
          </mxGeometry>
        </mxCell>
        <mxCell id="TvmcNosokVq-BHHIvJGE-84" value="" style="ellipse;whiteSpace=wrap;html=1;" vertex="1" parent="1">
          <mxGeometry x="185" y="430" width="30" height="20" as="geometry" />
        </mxCell>
        <mxCell id="TvmcNosokVq-BHHIvJGE-85" value="DataHora" style="text;html=1;align=center;verticalAlign=middle;whiteSpace=wrap;rounded=0;" vertex="1" parent="1">
          <mxGeometry x="175" y="410" width="60" height="20" as="geometry" />
        </mxCell>
        <mxCell id="TvmcNosokVq-BHHIvJGE-86" value="" style="endArrow=none;html=1;rounded=0;" edge="1" parent="1">
          <mxGeometry width="50" height="50" relative="1" as="geometry">
            <mxPoint x="230" y="520" as="sourcePoint" />
            <mxPoint x="230" y="480" as="targetPoint" />
          </mxGeometry>
        </mxCell>
        <mxCell id="TvmcNosokVq-BHHIvJGE-87" value="" style="ellipse;whiteSpace=wrap;html=1;" vertex="1" parent="1">
          <mxGeometry x="215" y="460" width="30" height="20" as="geometry" />
        </mxCell>
        <mxCell id="TvmcNosokVq-BHHIvJGE-88" value="Método de pagamento" style="text;html=1;align=center;verticalAlign=middle;whiteSpace=wrap;rounded=0;" vertex="1" parent="1">
          <mxGeometry x="225" y="430" width="70" height="30" as="geometry" />
        </mxCell>
        <mxCell id="TvmcNosokVq-BHHIvJGE-89" value="" style="endArrow=none;html=1;rounded=0;" edge="1" parent="1">
          <mxGeometry width="50" height="50" relative="1" as="geometry">
            <mxPoint x="270" y="530" as="sourcePoint" />
            <mxPoint x="270" y="500" as="targetPoint" />
          </mxGeometry>
        </mxCell>
        <mxCell id="TvmcNosokVq-BHHIvJGE-90" value="" style="ellipse;whiteSpace=wrap;html=1;" vertex="1" parent="1">
          <mxGeometry x="255" y="480" width="30" height="20" as="geometry" />
        </mxCell>
        <mxCell id="TvmcNosokVq-BHHIvJGE-91" value="Status" style="text;html=1;align=center;verticalAlign=middle;whiteSpace=wrap;rounded=0;" vertex="1" parent="1">
          <mxGeometry x="275" y="460" width="40" height="30" as="geometry" />
        </mxCell>
        <mxCell id="TvmcNosokVq-BHHIvJGE-92" value="" style="endArrow=none;html=1;rounded=0;" edge="1" parent="1">
          <mxGeometry width="50" height="50" relative="1" as="geometry">
            <mxPoint x="110" y="530" as="sourcePoint" />
            <mxPoint x="150" y="530" as="targetPoint" />
          </mxGeometry>
        </mxCell>
        <mxCell id="TvmcNosokVq-BHHIvJGE-93" value="" style="endArrow=none;html=1;rounded=0;" edge="1" parent="1">
          <mxGeometry width="50" height="50" relative="1" as="geometry">
            <mxPoint x="109.5" y="530" as="sourcePoint" />
            <mxPoint x="109.5" y="500" as="targetPoint" />
          </mxGeometry>
        </mxCell>
        <mxCell id="TvmcNosokVq-BHHIvJGE-94" value="" style="ellipse;whiteSpace=wrap;html=1;" vertex="1" parent="1">
          <mxGeometry x="95" y="480" width="30" height="20" as="geometry" />
        </mxCell>
        <mxCell id="TvmcNosokVq-BHHIvJGE-95" value="ID Transação" style="text;html=1;align=center;verticalAlign=middle;whiteSpace=wrap;rounded=0;" vertex="1" parent="1">
          <mxGeometry x="80" y="450" width="60" height="30" as="geometry" />
        </mxCell>
        <mxCell id="TvmcNosokVq-BHHIvJGE-100" value="&lt;b&gt;&lt;font style=&quot;font-size: 14px;&quot;&gt;Seguro&lt;/font&gt;&lt;/b&gt;" style="rounded=0;whiteSpace=wrap;html=1;" vertex="1" parent="1">
          <mxGeometry x="495" y="567.5" width="120" height="40" as="geometry" />
        </mxCell>
        <mxCell id="TvmcNosokVq-BHHIvJGE-101" value="" style="endArrow=none;html=1;rounded=0;" edge="1" parent="1">
          <mxGeometry width="50" height="50" relative="1" as="geometry">
            <mxPoint x="495" y="567.5" as="sourcePoint" />
            <mxPoint x="495" y="497.5" as="targetPoint" />
          </mxGeometry>
        </mxCell>
        <mxCell id="TvmcNosokVq-BHHIvJGE-102" value="" style="ellipse;whiteSpace=wrap;html=1;" vertex="1" parent="1">
          <mxGeometry x="485" y="477.5" width="30" height="20" as="geometry" />
        </mxCell>
        <mxCell id="TvmcNosokVq-BHHIvJGE-103" value="ID do segurado" style="text;html=1;align=center;verticalAlign=middle;whiteSpace=wrap;rounded=0;" vertex="1" parent="1">
          <mxGeometry x="460" y="447.5" width="60" height="30" as="geometry" />
        </mxCell>
        <mxCell id="TvmcNosokVq-BHHIvJGE-104" value="" style="endArrow=none;html=1;rounded=0;" edge="1" parent="1">
          <mxGeometry width="50" height="50" relative="1" as="geometry">
            <mxPoint x="539" y="567.5" as="sourcePoint" />
            <mxPoint x="539" y="497.5" as="targetPoint" />
          </mxGeometry>
        </mxCell>
        <mxCell id="TvmcNosokVq-BHHIvJGE-105" value="" style="ellipse;whiteSpace=wrap;html=1;" vertex="1" parent="1">
          <mxGeometry x="530" y="477.5" width="30" height="20" as="geometry" />
        </mxCell>
        <mxCell id="TvmcNosokVq-BHHIvJGE-106" value="ID do beneficiário" style="text;html=1;align=center;verticalAlign=middle;whiteSpace=wrap;rounded=0;" vertex="1" parent="1">
          <mxGeometry x="515" y="447.5" width="70" height="30" as="geometry" />
        </mxCell>
        <mxCell id="TvmcNosokVq-BHHIvJGE-107" value="" style="endArrow=none;html=1;rounded=0;" edge="1" parent="1">
          <mxGeometry width="50" height="50" relative="1" as="geometry">
            <mxPoint x="575" y="567.5" as="sourcePoint" />
            <mxPoint x="575" y="527.5" as="targetPoint" />
          </mxGeometry>
        </mxCell>
        <mxCell id="TvmcNosokVq-BHHIvJGE-108" value="" style="ellipse;whiteSpace=wrap;html=1;" vertex="1" parent="1">
          <mxGeometry x="560" y="507.5" width="30" height="20" as="geometry" />
        </mxCell>
        <mxCell id="TvmcNosokVq-BHHIvJGE-109" value="Tipo de seguro" style="text;html=1;align=center;verticalAlign=middle;whiteSpace=wrap;rounded=0;" vertex="1" parent="1">
          <mxGeometry x="570" y="477.5" width="50" height="30" as="geometry" />
        </mxCell>
        <mxCell id="TvmcNosokVq-BHHIvJGE-110" value="" style="endArrow=none;html=1;rounded=0;" edge="1" parent="1">
          <mxGeometry width="50" height="50" relative="1" as="geometry">
            <mxPoint x="615" y="577.5" as="sourcePoint" />
            <mxPoint x="615" y="547.5" as="targetPoint" />
          </mxGeometry>
        </mxCell>
        <mxCell id="TvmcNosokVq-BHHIvJGE-111" value="" style="ellipse;whiteSpace=wrap;html=1;" vertex="1" parent="1">
          <mxGeometry x="600" y="527.5" width="30" height="20" as="geometry" />
        </mxCell>
        <mxCell id="TvmcNosokVq-BHHIvJGE-112" value="Status" style="text;html=1;align=center;verticalAlign=middle;whiteSpace=wrap;rounded=0;" vertex="1" parent="1">
          <mxGeometry x="620" y="507.5" width="40" height="30" as="geometry" />
        </mxCell>
        <mxCell id="TvmcNosokVq-BHHIvJGE-113" value="" style="endArrow=none;html=1;rounded=0;" edge="1" parent="1">
          <mxGeometry width="50" height="50" relative="1" as="geometry">
            <mxPoint x="455" y="577.5" as="sourcePoint" />
            <mxPoint x="495" y="577.5" as="targetPoint" />
          </mxGeometry>
        </mxCell>
        <mxCell id="TvmcNosokVq-BHHIvJGE-114" value="" style="endArrow=none;html=1;rounded=0;" edge="1" parent="1">
          <mxGeometry width="50" height="50" relative="1" as="geometry">
            <mxPoint x="454.5" y="577.5" as="sourcePoint" />
            <mxPoint x="454.5" y="547.5" as="targetPoint" />
          </mxGeometry>
        </mxCell>
        <mxCell id="TvmcNosokVq-BHHIvJGE-115" value="" style="ellipse;whiteSpace=wrap;html=1;" vertex="1" parent="1">
          <mxGeometry x="440" y="527.5" width="30" height="20" as="geometry" />
        </mxCell>
        <mxCell id="TvmcNosokVq-BHHIvJGE-116" value="Data término" style="text;html=1;align=center;verticalAlign=middle;whiteSpace=wrap;rounded=0;" vertex="1" parent="1">
          <mxGeometry x="425" y="497.5" width="50" height="30" as="geometry" />
        </mxCell>
        <mxCell id="TvmcNosokVq-BHHIvJGE-117" value="" style="endArrow=none;html=1;rounded=0;" edge="1" parent="1">
          <mxGeometry width="50" height="50" relative="1" as="geometry">
            <mxPoint x="420" y="597.5" as="sourcePoint" />
            <mxPoint x="495" y="597.5" as="targetPoint" />
          </mxGeometry>
        </mxCell>
        <mxCell id="TvmcNosokVq-BHHIvJGE-118" value="" style="endArrow=none;html=1;rounded=0;" edge="1" parent="1">
          <mxGeometry width="50" height="50" relative="1" as="geometry">
            <mxPoint x="420" y="597.5" as="sourcePoint" />
            <mxPoint x="420" y="567.5" as="targetPoint" />
          </mxGeometry>
        </mxCell>
        <mxCell id="TvmcNosokVq-BHHIvJGE-119" value="" style="ellipse;whiteSpace=wrap;html=1;" vertex="1" parent="1">
          <mxGeometry x="400" y="547.5" width="30" height="20" as="geometry" />
        </mxCell>
        <mxCell id="TvmcNosokVq-BHHIvJGE-120" value="Data inicio" style="text;html=1;align=center;verticalAlign=middle;whiteSpace=wrap;rounded=0;" vertex="1" parent="1">
          <mxGeometry x="370" y="517.5" width="50" height="30" as="geometry" />
        </mxCell>
        <mxCell id="TvmcNosokVq-BHHIvJGE-124" value="" style="endArrow=none;html=1;rounded=0;" edge="1" parent="1">
          <mxGeometry width="50" height="50" relative="1" as="geometry">
            <mxPoint x="615" y="577.5" as="sourcePoint" />
            <mxPoint x="690" y="577.5" as="targetPoint" />
          </mxGeometry>
        </mxCell>
        <mxCell id="TvmcNosokVq-BHHIvJGE-125" value="" style="endArrow=none;html=1;rounded=0;" edge="1" parent="1">
          <mxGeometry width="50" height="50" relative="1" as="geometry">
            <mxPoint x="690" y="577.5" as="sourcePoint" />
            <mxPoint x="690" y="547.5" as="targetPoint" />
          </mxGeometry>
        </mxCell>
        <mxCell id="TvmcNosokVq-BHHIvJGE-126" value="" style="ellipse;whiteSpace=wrap;html=1;" vertex="1" parent="1">
          <mxGeometry x="675" y="527.5" width="30" height="20" as="geometry" />
        </mxCell>
        <mxCell id="TvmcNosokVq-BHHIvJGE-127" value="Valor" style="text;html=1;align=center;verticalAlign=middle;whiteSpace=wrap;rounded=0;" vertex="1" parent="1">
          <mxGeometry x="670" y="507.5" width="40" height="20" as="geometry" />
        </mxCell>
        <mxCell id="TvmcNosokVq-BHHIvJGE-128" value="" style="endArrow=none;html=1;rounded=0;" edge="1" parent="1">
          <mxGeometry width="50" height="50" relative="1" as="geometry">
            <mxPoint x="615" y="597.5" as="sourcePoint" />
            <mxPoint x="690" y="597.5" as="targetPoint" />
          </mxGeometry>
        </mxCell>
        <mxCell id="TvmcNosokVq-BHHIvJGE-129" value="" style="ellipse;whiteSpace=wrap;html=1;" vertex="1" parent="1">
          <mxGeometry x="685" y="587.5" width="30" height="20" as="geometry" />
        </mxCell>
        <mxCell id="TvmcNosokVq-BHHIvJGE-130" value="Cobertura" style="text;html=1;align=center;verticalAlign=middle;whiteSpace=wrap;rounded=0;" vertex="1" parent="1">
          <mxGeometry x="700" y="567.5" width="50" height="20" as="geometry" />
        </mxCell>
        <mxCell id="TvmcNosokVq-BHHIvJGE-131" value="" style="endArrow=none;html=1;rounded=0;" edge="1" parent="1">
          <mxGeometry width="50" height="50" relative="1" as="geometry">
            <mxPoint x="110" y="549.5" as="sourcePoint" />
            <mxPoint x="150" y="549.5" as="targetPoint" />
          </mxGeometry>
        </mxCell>
        <mxCell id="TvmcNosokVq-BHHIvJGE-132" value="" style="ellipse;whiteSpace=wrap;html=1;" vertex="1" parent="1">
          <mxGeometry x="80" y="540" width="30" height="20" as="geometry" />
        </mxCell>
        <mxCell id="TvmcNosokVq-BHHIvJGE-133" value="ID" style="text;html=1;align=center;verticalAlign=middle;whiteSpace=wrap;rounded=0;" vertex="1" parent="1">
          <mxGeometry x="75" y="520" width="15" height="20" as="geometry" />
        </mxCell>
        <mxCell id="TvmcNosokVq-BHHIvJGE-134" value="" style="endArrow=none;html=1;rounded=0;" edge="1" parent="1">
          <mxGeometry width="50" height="50" relative="1" as="geometry">
            <mxPoint x="275" y="349" as="sourcePoint" />
            <mxPoint x="315" y="349" as="targetPoint" />
          </mxGeometry>
        </mxCell>
        <mxCell id="TvmcNosokVq-BHHIvJGE-135" value="" style="ellipse;whiteSpace=wrap;html=1;" vertex="1" parent="1">
          <mxGeometry x="310" y="340" width="30" height="20" as="geometry" />
        </mxCell>
        <mxCell id="TvmcNosokVq-BHHIvJGE-136" value="ID" style="text;html=1;align=center;verticalAlign=middle;whiteSpace=wrap;rounded=0;" vertex="1" parent="1">
          <mxGeometry x="317.5" y="320" width="15" height="20" as="geometry" />
        </mxCell>
        <mxCell id="TvmcNosokVq-BHHIvJGE-137" value="" style="endArrow=none;html=1;rounded=0;" edge="1" parent="1">
          <mxGeometry width="50" height="50" relative="1" as="geometry">
            <mxPoint x="495" y="632.5" as="sourcePoint" />
            <mxPoint x="495" y="602.5" as="targetPoint" />
          </mxGeometry>
        </mxCell>
        <mxCell id="TvmcNosokVq-BHHIvJGE-138" value="" style="ellipse;whiteSpace=wrap;html=1;" vertex="1" parent="1">
          <mxGeometry x="480" y="627.5" width="30" height="20" as="geometry" />
        </mxCell>
        <mxCell id="TvmcNosokVq-BHHIvJGE-139" value="ID" style="text;html=1;align=center;verticalAlign=middle;whiteSpace=wrap;rounded=0;" vertex="1" parent="1">
          <mxGeometry x="470" y="607.5" width="15" height="20" as="geometry" />
        </mxCell>
        <mxCell id="TvmcNosokVq-BHHIvJGE-140" value="" style="endArrow=none;html=1;rounded=0;" edge="1" parent="1">
          <mxGeometry width="50" height="50" relative="1" as="geometry">
            <mxPoint x="485" y="400" as="sourcePoint" />
            <mxPoint x="485" y="370" as="targetPoint" />
          </mxGeometry>
        </mxCell>
        <mxCell id="TvmcNosokVq-BHHIvJGE-141" value="" style="ellipse;whiteSpace=wrap;html=1;" vertex="1" parent="1">
          <mxGeometry x="470" y="390" width="30" height="20" as="geometry" />
        </mxCell>
        <mxCell id="TvmcNosokVq-BHHIvJGE-142" value="ID" style="text;html=1;align=center;verticalAlign=middle;whiteSpace=wrap;rounded=0;" vertex="1" parent="1">
          <mxGeometry x="460" y="370" width="15" height="20" as="geometry" />
        </mxCell>
      </root>
    </mxGraphModel>
  </diagram>
</mxfile>
